<?xml version="1.0" encoding="UTF-8"?>
<svg version="1.1" xmlns="http://www.w3.org/2000/svg" width="800" height="800">
<path d="M0 0 C1.64433807 -0.00374589 3.28867436 -0.0083511 4.9330079 -0.01373065 C9.40957202 -0.02586074 13.88606087 -0.02571209 18.36263764 -0.02334189 C23.20750883 -0.02293116 28.05235669 -0.03399735 32.8972168 -0.04345703 C42.3748694 -0.06001433 51.85249712 -0.06556423 61.33016298 -0.06668179 C69.04316305 -0.06763501 76.75615496 -0.07175896 84.46915245 -0.07808304 C106.38383849 -0.09568304 128.29850501 -0.10492415 150.21319816 -0.10342209 C151.98242772 -0.10330222 151.98242772 -0.10330222 153.78739929 -0.10317993 C154.96834261 -0.10309817 156.14928592 -0.10301641 157.3660154 -0.10293217 C176.48198279 -0.10212019 195.59787121 -0.12123896 214.71381579 -0.14945666 C234.38793771 -0.17826676 254.06202122 -0.19199242 273.73616475 -0.19026911 C284.76305077 -0.18960789 295.78985407 -0.19498175 306.81672096 -0.21662521 C316.20957439 -0.23494456 325.60230762 -0.2390971 334.99517129 -0.22560637 C339.7761848 -0.21912979 344.55696844 -0.21876399 349.33795929 -0.23631287 C413.82247962 -0.45791575 470.92120719 18.17838836 518.18559265 63.26742554 C519.03766296 64.06664429 519.88973328 64.86586304 520.7676239 65.68930054 C527.65890637 72.3309775 533.4621999 79.6265929 539.18559265 87.26742554 C539.83576355 88.12642456 539.83576355 88.12642456 540.49906921 89.0027771 C547.25574971 97.97241133 553.00941602 107.30486428 558.18559265 117.26742554 C558.59309753 118.04972534 559.00060242 118.83202515 559.42045593 119.63803101 C574.99057872 149.93357197 583.52770065 183.00646392 583.45301819 217.08183289 C583.45676407 218.72617095 583.46136929 220.37050725 583.46674883 222.01484078 C583.47887893 226.49140491 583.47873027 230.96789375 583.47636008 235.44447052 C583.47594935 240.28934171 583.48701554 245.13418957 583.49647522 249.97904968 C583.51303252 259.45670229 583.51858242 268.93433 583.51969998 278.41199587 C583.5206532 286.12499593 583.52477715 293.83798785 583.53110123 301.55098534 C583.54870123 323.46567138 583.55794234 345.38033789 583.55644028 367.29503105 C583.55632041 369.06426061 583.55632041 369.06426061 583.55619812 370.86923218 C583.55611636 372.05017549 583.5560346 373.23111881 583.55595036 374.44784828 C583.55513838 393.56381567 583.57425715 412.6797041 583.60247485 431.79564867 C583.63128495 451.46977059 583.64501061 471.14385411 583.6432873 490.81799763 C583.64262608 501.84488366 583.64799994 512.87168695 583.6696434 523.89855385 C583.68796275 533.29140728 583.69211529 542.6841405 583.67862456 552.07700417 C583.67214798 556.85801769 583.67178218 561.63880133 583.68933105 566.41979218 C583.91093394 630.9043125 565.27462983 688.00304008 520.18559265 735.26742554 C518.98676453 736.54553101 518.98676453 736.54553101 517.76371765 737.84945679 C511.12204069 744.74073925 503.82642529 750.54403278 496.18559265 756.26742554 C495.61292664 756.7008728 495.04026062 757.13432007 494.45024109 757.5809021 C485.48060686 764.3375826 476.14815391 770.0912489 466.18559265 775.26742554 C465.40329285 775.67493042 464.62099304 776.0824353 463.81498718 776.50228882 C433.51944622 792.07241161 400.44655426 800.60953354 366.3711853 800.53485107 C364.72684723 800.53859696 363.08251094 800.54320218 361.43817741 800.54858172 C356.96161328 800.56071181 352.48512444 800.56056316 348.00854766 800.55819297 C343.16367648 800.55778223 338.31882862 800.56884843 333.47396851 800.57830811 C323.9963159 800.5948654 314.51868819 800.60041531 305.04102232 800.60153286 C297.32802226 800.60248608 289.61503034 800.60661003 281.90203285 800.61293411 C259.98734681 800.63053411 238.0726803 800.63977522 216.15798714 800.63827316 C214.38875758 800.6381533 214.38875758 800.6381533 212.58378601 800.63803101 C211.4028427 800.63794924 210.22189938 800.63786748 209.00516991 800.63778324 C189.88920251 800.63697126 170.77331409 800.65609003 151.65736952 800.68430774 C131.9832476 800.71311784 112.30916408 800.7268435 92.63502055 800.72512019 C81.60813453 800.72445896 70.58133124 800.72983282 59.55446434 800.75147629 C50.16161091 800.76979563 40.76887769 800.77394818 31.37601402 800.76045744 C26.5950005 800.75398086 21.81421686 800.75361506 17.03322601 800.77116394 C-47.45129431 800.99276682 -104.55002189 782.35646271 -151.81440735 737.26742554 C-153.09251282 736.06859741 -153.09251282 736.06859741 -154.3964386 734.84555054 C-161.28772106 728.20387358 -167.0910146 720.90825817 -172.81440735 713.26742554 C-173.24785461 712.69475952 -173.68130188 712.12209351 -174.12788391 711.53207397 C-180.88456441 702.56243975 -186.63823071 693.22998679 -191.81440735 683.26742554 C-192.22191223 682.48512573 -192.62941711 681.70282593 -193.04927063 680.89682007 C-208.61939342 650.60127911 -217.15651535 617.52838715 -217.08183289 583.45301819 C-217.08557877 581.80868012 -217.09018399 580.16434383 -217.09556353 578.52001029 C-217.10769362 574.04344616 -217.10754497 569.56695732 -217.10517478 565.09038055 C-217.10476405 560.24550936 -217.11583024 555.4006615 -217.12528992 550.55580139 C-217.14184721 541.07814879 -217.14739712 531.60052107 -217.14851467 522.12285521 C-217.1494679 514.40985514 -217.15359184 506.69686322 -217.15991592 498.98386574 C-217.17751592 477.0691797 -217.18675703 455.15451318 -217.18525498 433.23982003 C-217.18517506 432.06033365 -217.18509515 430.88084728 -217.18501282 429.6656189 C-217.18493106 428.48467558 -217.18484929 427.30373227 -217.18476506 426.08700279 C-217.18395308 406.9710354 -217.20307185 387.85514697 -217.23128955 368.7392024 C-217.26009965 349.06508048 -217.27382531 329.39099696 -217.272102 309.71685344 C-217.27144077 298.68996742 -217.27681464 287.66316412 -217.2984581 276.63629723 C-217.31677744 267.2434438 -217.32092999 257.85071057 -217.30743925 248.4578469 C-217.30096267 243.67683339 -217.30059688 238.89604974 -217.31814575 234.1150589 C-217.53974863 169.63053857 -198.90344452 112.531811 -153.81440735 65.26742554 C-153.0151886 64.41535522 -152.21596985 63.56328491 -151.39253235 62.68539429 C-144.75085539 55.79411182 -137.45523998 49.99081829 -129.81440735 44.26742554 C-128.95540833 43.61725464 -128.95540833 43.61725464 -128.07905579 42.95394897 C-119.10942156 36.19726848 -109.7769686 30.44360217 -99.81440735 25.26742554 C-99.03210754 24.85992065 -98.24980774 24.45241577 -97.44380188 24.03256226 C-67.14826092 8.46243946 -34.07536896 -0.07468247 0 0 Z " fill="#F97316" transform="translate(216.8144073486328,-0.267425537109375)"/>
<path d="M0 0 C2.0173831 1.46221178 3.82411955 3.00695894 5.640625 4.7109375 C6.24390625 5.236875 6.8471875 5.7628125 7.46875 6.3046875 C16.13822335 14.29568033 21.17757935 24.98987262 23.2109375 36.4765625 C23.62023663 38.86874129 23.62023663 38.86874129 24.640625 41.7109375 C24.75152439 43.18008499 24.8093438 44.65357977 24.83349609 46.12670898 C24.84933243 47.02724503 24.86516876 47.92778107 24.88148499 48.85560608 C24.89223557 49.83782639 24.90298615 50.82004669 24.9140625 51.83203125 C24.92654526 52.86230942 24.93902802 53.89258759 24.95188904 54.9540863 C25.21469626 82.05076163 23.72028493 108.29732029 19.99530029 135.12188721 C19.40396294 139.43851758 18.85358075 143.7603264 18.30078125 148.08203125 C17.38123022 155.23916109 16.43418584 162.39213035 15.46791077 169.54309082 C14.74644103 174.89256224 14.05769945 180.24573635 13.37915039 185.60083008 C12.13694157 195.37415199 10.64522085 205.07960933 8.96826172 214.78710938 C8.32190614 218.58240142 7.74499242 222.3878159 7.17578125 226.1953125 C6.76448611 228.89725138 6.33224055 231.59274466 5.88671875 234.2890625 C3.87207774 246.72956227 2.640625 259.09351663 2.640625 271.7109375 C3.3625 271.9790625 4.084375 272.2471875 4.828125 272.5234375 C7.640625 273.7109375 7.640625 273.7109375 9.6796875 275.25 C13.9973017 277.3803268 18.07242741 277.2030572 22.828125 277.2734375 C38.49964096 277.5780674 55.24385108 280.59376653 67.41796875 291.26953125 C68.640625 292.7109375 68.640625 292.7109375 68.640625 294.7109375 C69.300625 294.7109375 69.960625 294.7109375 70.640625 294.7109375 C74.4176064 300.3764096 74.29845878 306.05950709 73.640625 312.7109375 C72.3432979 316.74706625 71.15180581 318.27108425 67.953125 321.0234375 C61.624494 324.24745706 57.44239111 324.19086565 50.828125 322.0859375 C45.91612718 320.2924728 41.1662019 318.22338338 36.43359375 316.00390625 C28.98597449 312.55612726 21.35584111 309.50437782 13.640625 306.7109375 C12.71636719 306.35257812 11.79210937 305.99421875 10.83984375 305.625 C-9.09576555 299.92911163 -37.7677425 311.12039297 -56.40625 318.25 C-60.22835406 319.69761782 -64.1141534 320.85535311 -68.046875 321.9609375 C-75.72998414 324.1669873 -83.30747999 326.64115862 -90.87573242 329.21191406 C-95.02488397 330.6174215 -99.17620214 331.96976366 -103.37890625 333.20703125 C-108.35531258 334.68037018 -113.2265847 336.39327756 -118.109375 338.1484375 C-125.13809119 340.64859804 -132.1559375 342.8502806 -139.3515625 344.8203125 C-142.03932865 345.61617053 -144.53493 346.54884404 -147.109375 347.6484375 C-152.25212911 349.80238321 -157.52669924 351.19718713 -162.90112305 352.63769531 C-170.23147601 354.62298355 -177.44678137 356.92443458 -184.65917969 359.30004883 C-198.20610431 363.7109375 -198.20610431 363.7109375 -205.359375 363.7109375 C-205.483125 364.9071875 -205.606875 366.1034375 -205.734375 367.3359375 C-206.19029138 371.00895393 -207.16615731 374.20147371 -208.359375 377.7109375 C-209.47966717 382.39749308 -210.27942031 387.14187249 -211.01171875 391.90234375 C-212.29388654 400.14548171 -213.76826602 407.92232923 -216.58984375 415.81640625 C-217.50523743 418.76040798 -217.50523743 418.76040798 -217.359375 422.1171875 C-217.359375 426.07407428 -218.11611657 429.21558967 -219.171875 433.0234375 C-221.12974605 440.38081065 -222.45376351 447.74290955 -223.640625 455.2578125 C-224.31307405 459.51049851 -225.10388421 463.73422328 -225.921875 467.9609375 C-227.94863578 478.58869083 -229.4532408 489.16563898 -230.11328125 499.96875 C-230.359375 502.7109375 -230.359375 502.7109375 -230.85717773 504.58398438 C-231.40949946 506.92322934 -231.55198945 509.08320024 -231.640625 511.484375 C-231.67800781 512.391875 -231.71539062 513.299375 -231.75390625 514.234375 C-231.80611328 515.64589844 -231.80611328 515.64589844 -231.859375 517.0859375 C-232.06983291 522.72932731 -232.42442881 528.13778169 -233.359375 533.7109375 C-233.5979682 537.14550132 -233.72790501 540.5833062 -233.859375 544.0234375 C-234.25055181 554.12883845 -234.25055181 554.12883845 -234.859375 558.890625 C-235.67619572 565.73452377 -235.69076103 572.63941755 -235.859375 579.5234375 C-235.92934201 582.30086613 -236.00222083 585.07819598 -236.078125 587.85546875 C-236.10678146 588.91974594 -236.10678146 588.91974594 -236.13601685 590.00552368 C-236.27127825 594.657103 -236.4876894 599.29951702 -236.74502563 603.94584656 C-237.3259555 614.46749649 -237.51437838 624.95574324 -237.48974609 635.49267578 C-237.48437682 638.21001762 -237.48974141 640.92719428 -237.49609375 643.64453125 C-237.54590626 667.87394802 -237.54590626 667.87394802 -234.359375 691.8359375 C-234.18148438 692.77824219 -234.00359375 693.72054687 -233.8203125 694.69140625 C-233.00679587 699.33676957 -233.00679587 699.33676957 -231.359375 703.7109375 C-230.6925238 711.31304117 -232.6151877 717.02047872 -237.171875 723.1484375 C-241.62211499 726.32718035 -246.98848103 727.46286266 -252.359375 726.7109375 C-257.16869314 724.85674255 -260.51486518 723.31816442 -262.97265625 718.640625 C-272.01689357 694.95245335 -272.95956244 667.91532415 -272.29345703 642.91210938 C-272.20639128 640.66670493 -272.20639128 640.66670493 -273.359375 638.7109375 C-274.019375 638.7109375 -274.679375 638.7109375 -275.359375 638.7109375 C-275.7615625 639.608125 -275.7615625 639.608125 -276.171875 640.5234375 C-278.36833714 644.56955197 -281.0104889 646.47659124 -285.33984375 648.19921875 C-291.34956492 649.72199142 -297.3467057 647.86120503 -302.63671875 644.9375 C-307.4130215 641.5366858 -309.31695389 636.27574195 -310.359375 630.7109375 C-310.64371223 626.81374621 -310.63973964 622.9296608 -310.625 619.0234375 C-310.62691345 617.8893042 -310.6288269 616.7551709 -310.63079834 615.58666992 C-310.63215717 613.1827777 -310.62848186 610.77887806 -310.62011719 608.375 C-310.60957298 604.77846744 -310.61993951 601.18245293 -310.6328125 597.5859375 C-310.64048892 584.69516732 -310.1222656 572.00954428 -308.8671875 559.18212891 C-308.08836587 551.14401088 -307.71949943 543.08598285 -307.35400391 535.02026367 C-307.23351942 532.37968625 -307.10350509 529.73969144 -306.97265625 527.09960938 C-306.56872809 518.67762684 -306.26952898 510.260183 -306.21484375 501.828125 C-306.20609222 501.10433151 -306.1973407 500.38053802 -306.18832397 499.6348114 C-306.18800889 492.5012387 -307.96404407 486.35381151 -310.359375 479.7109375 C-311.04563156 477.75653101 -311.7318237 475.80210189 -312.41796875 473.84765625 C-314.33695344 468.42605073 -316.30499989 463.02364858 -318.29150391 457.62646484 C-319.20794123 455.12438561 -320.1071665 452.61740876 -320.99609375 450.10546875 C-324.12460686 441.35425806 -327.92765151 433.09612703 -332.23681641 424.87060547 C-333.43867635 422.55837122 -334.60878421 420.2315703 -335.77734375 417.90234375 C-339.48777554 410.57053053 -343.28481075 403.25715091 -347.921875 396.4609375 C-348.56253906 395.50703125 -349.20320313 394.553125 -349.86328125 393.5703125 C-353.08905394 391.1673895 -354.81626173 391.89970928 -358.64274597 392.4140625 C-363.8511183 392.98323684 -369.0865577 392.85283724 -374.3203125 392.84375 C-375.54666412 392.84470673 -376.77301575 392.84566345 -378.03652954 392.84664917 C-380.62005668 392.847327 -383.20358555 392.84550053 -385.78710938 392.84130859 C-389.71488321 392.83596402 -393.64254223 392.84126243 -397.5703125 392.84765625 C-400.09114608 392.84699522 -402.6119796 392.84571354 -405.1328125 392.84375 C-406.29461029 392.84577423 -407.45640808 392.84779846 -408.65341187 392.84988403 C-425.31005174 392.80263822 -425.31005174 392.80263822 -433.359375 390.7109375 C-435.14847919 390.5364583 -436.94081898 390.39382688 -438.734375 390.2734375 C-445.66285374 389.72514062 -452.4954987 388.78630795 -459.359375 387.7109375 C-460.25301758 387.57284668 -461.14666016 387.43475586 -462.06738281 387.29248047 C-473.35845933 385.53372838 -484.51126365 383.63814797 -495.5625 380.71484375 C-499.7086096 379.61859872 -503.87068197 378.62210831 -508.046875 377.6484375 C-508.76214355 377.48085938 -509.47741211 377.31328125 -510.21435547 377.140625 C-514.44721351 376.15084738 -518.68396203 375.1788559 -522.921875 374.2109375 C-535.09372703 371.40089265 -547.15065158 368.24375289 -559.19360352 364.93139648 C-567.21967175 362.73075682 -575.27633296 360.69119279 -583.359375 358.7109375 C-586.0266692 358.04675426 -588.69304477 357.37898507 -591.359375 356.7109375 C-591.75962891 357.59072266 -591.75962891 357.59072266 -592.16796875 358.48828125 C-593.38305877 360.75512131 -594.69089306 362.37876932 -596.421875 364.2734375 C-599.32723437 367.51705077 -602.11560638 370.82930131 -604.859375 374.2109375 C-607.64734778 377.62799132 -610.43801898 381.0403218 -613.296875 384.3984375 C-614.11478516 385.36330078 -614.11478516 385.36330078 -614.94921875 386.34765625 C-616.359375 387.7109375 -616.359375 387.7109375 -618.359375 387.7109375 C-618.7615625 388.5771875 -618.7615625 388.5771875 -619.171875 389.4609375 C-620.38866689 391.76643793 -621.66271379 393.73149942 -623.359375 395.7109375 C-624.019375 395.7109375 -624.679375 395.7109375 -625.359375 395.7109375 C-625.58625 396.2678125 -625.813125 396.8246875 -626.046875 397.3984375 C-627.74080736 400.38298499 -629.87552198 402.33747795 -632.359375 404.7109375 C-633.61349916 405.93589598 -634.86336806 407.16522324 -636.109375 408.3984375 C-636.70234375 408.97980469 -637.2953125 409.56117188 -637.90625 410.16015625 C-639.45579304 411.66607724 -639.45579304 411.66607724 -640.359375 413.7109375 C-641.019375 413.7109375 -641.679375 413.7109375 -642.359375 413.7109375 C-642.359375 414.3709375 -642.359375 415.0309375 -642.359375 415.7109375 C-643.9881719 417.43844936 -645.64225402 419.0747726 -647.359375 420.7109375 C-648.61343778 421.93595882 -649.86334169 423.16524989 -651.109375 424.3984375 C-651.70234375 424.97980469 -652.2953125 425.56117188 -652.90625 426.16015625 C-654.45579304 427.66607724 -654.45579304 427.66607724 -655.359375 429.7109375 C-656.019375 429.7109375 -656.679375 429.7109375 -657.359375 429.7109375 C-657.359375 430.3709375 -657.359375 431.0309375 -657.359375 431.7109375 C-658.019375 431.7109375 -658.679375 431.7109375 -659.359375 431.7109375 C-659.69001953 432.51724609 -659.69001953 432.51724609 -660.02734375 433.33984375 C-661.80988803 436.51287712 -664.1952901 439.01398264 -666.671875 441.6484375 C-667.14560547 442.16083984 -667.61933594 442.67324219 -668.10742188 443.20117188 C-671.12053913 446.44511617 -674.21236903 449.59604384 -677.359375 452.7109375 C-680.21620012 455.54160321 -683.06954352 458.37574449 -685.921875 461.2109375 C-686.67662109 461.95730469 -687.43136719 462.70367188 -688.20898438 463.47265625 C-691.82625769 467.07399444 -695.26075868 470.64212335 -698.359375 474.7109375 C-702.09120036 478.65601002 -706.14416727 482.20303137 -710.21875 485.78515625 C-711.90621424 487.30325821 -713.52249053 488.90048747 -715.109375 490.5234375 C-717.38161769 492.73256233 -719.62785564 494.13262581 -722.359375 495.7109375 C-722.55833952 490.73070241 -722.70284804 485.75281705 -722.79882812 480.76953125 C-722.83886348 479.07771477 -722.89331334 477.3861717 -722.96289062 475.6953125 C-723.52823513 461.59495547 -723.52823513 461.59495547 -720.578125 456.83984375 C-718.60396914 454.89036484 -716.61808329 453.30914838 -714.359375 451.7109375 C-714.029375 451.0509375 -713.699375 450.3909375 -713.359375 449.7109375 C-712.699375 449.7109375 -712.039375 449.7109375 -711.359375 449.7109375 C-711.111875 449.1334375 -710.864375 448.5559375 -710.609375 447.9609375 C-709.17637512 445.38153771 -707.57512824 443.64972158 -705.359375 441.7109375 C-704.699375 441.7109375 -704.039375 441.7109375 -703.359375 441.7109375 C-703.359375 441.0509375 -703.359375 440.3909375 -703.359375 439.7109375 C-702.699375 439.7109375 -702.039375 439.7109375 -701.359375 439.7109375 C-701.359375 439.0509375 -701.359375 438.3909375 -701.359375 437.7109375 C-700.699375 437.7109375 -700.039375 437.7109375 -699.359375 437.7109375 C-699.0190625 436.875625 -699.0190625 436.875625 -698.671875 436.0234375 C-696.98387464 433.04934162 -694.89260983 430.99084885 -692.359375 428.7109375 C-691.699375 428.7109375 -691.039375 428.7109375 -690.359375 428.7109375 C-690.029375 427.7209375 -689.699375 426.7309375 -689.359375 425.7109375 C-688.699375 425.7109375 -688.039375 425.7109375 -687.359375 425.7109375 C-687.029375 424.3909375 -686.699375 423.0709375 -686.359375 421.7109375 C-685.699375 421.7109375 -685.039375 421.7109375 -684.359375 421.7109375 C-684.15441406 421.17726563 -683.94945312 420.64359375 -683.73828125 420.09375 C-681.78104854 416.71156316 -679.0996785 414.28056262 -676.296875 411.5859375 C-672.3548856 408.01540384 -672.3548856 408.01540384 -669.359375 403.7109375 C-668.699375 403.7109375 -668.039375 403.7109375 -667.359375 403.7109375 C-667.111875 403.1540625 -666.864375 402.5971875 -666.609375 402.0234375 C-665.13012682 399.28682837 -663.42470061 397.03442881 -661.359375 394.7109375 C-660.699375 394.7109375 -660.039375 394.7109375 -659.359375 394.7109375 C-659.359375 394.0509375 -659.359375 393.3909375 -659.359375 392.7109375 C-657.75 391.1953125 -657.75 391.1953125 -655.609375 389.4609375 C-653.01099425 387.26230764 -651.26595757 385.57081135 -649.359375 382.7109375 C-647.55883915 380.01013373 -646.18461432 378.60665279 -643.734375 376.5859375 C-639.46919852 373.03429619 -636.10385876 368.96640051 -632.68505859 364.62255859 C-631.61702778 363.28528348 -630.49246051 361.9935566 -629.359375 360.7109375 C-628.699375 360.7109375 -628.039375 360.7109375 -627.359375 360.7109375 C-627.1325 360.1746875 -626.905625 359.6384375 -626.671875 359.0859375 C-624.92555444 355.92592887 -622.7190901 353.4432392 -620.359375 350.7109375 C-629.142021 347.65408015 -637.73539606 345.8145976 -646.90234375 344.421875 C-649.87716507 343.9649132 -652.82127683 343.43283026 -655.76953125 342.828125 C-659.70953691 342.02122277 -663.65828917 341.2954121 -667.61943054 340.60202026 C-670.79901059 340.04415955 -673.97589985 339.47164883 -677.15283203 338.89892578 C-678.782359 338.60838997 -680.412903 338.32349828 -682.04443359 338.04443359 C-709.81800348 333.27636662 -709.81800348 333.27636662 -718.22265625 322.54296875 C-720.93864637 318.16565134 -720.79447419 313.68471846 -720.359375 308.7109375 C-719.09904143 304.34178111 -717.21594894 302.30170806 -713.484375 299.8984375 C-703.93096665 295.21155684 -691.76615343 296.54514867 -681.359375 296.5859375 C-680.09625488 296.58932129 -678.83313477 296.59270508 -677.53173828 296.59619141 C-662.62964198 296.67741718 -647.91428521 297.32268429 -633.11230469 299.05029297 C-626.96770667 299.73576162 -621.00817822 299.7513399 -614.82421875 299.65234375 C-610.41408847 299.72692318 -606.24949003 300.43700518 -601.9140625 301.19921875 C-594.17797598 302.31287516 -586.17468959 302.7109375 -578.359375 302.7109375 C-578.00359375 301.9065625 -578.00359375 301.9065625 -577.640625 301.0859375 C-576.00702787 298.05780623 -573.96941546 295.41462848 -571.859375 292.7109375 C-571.41722656 292.13988281 -570.97507812 291.56882812 -570.51953125 290.98046875 C-566.74616918 286.13816558 -562.81349855 281.43770921 -558.859375 276.7421875 C-556.28283046 273.61812724 -553.80949128 270.43404417 -551.359375 267.2109375 C-547.3177555 261.89855249 -543.12017368 256.75488522 -538.82421875 251.64453125 C-536.31704238 248.6605543 -533.83297608 245.66029418 -531.359375 242.6484375 C-530.6375 241.77058594 -529.915625 240.89273438 -529.171875 239.98828125 C-527.25424424 237.64437527 -527.25424424 237.64437527 -525.359375 234.7109375 C-524.699375 234.7109375 -524.039375 234.7109375 -523.359375 234.7109375 C-523.13636719 234.18886719 -522.91335938 233.66679687 -522.68359375 233.12890625 C-520.86798439 229.81367854 -518.52900071 226.96184266 -516.171875 224.0234375 C-515.17169316 222.76446735 -514.17169291 221.50535293 -513.171875 220.24609375 C-512.44484375 219.3336792 -512.44484375 219.3336792 -511.703125 218.40283203 C-510.00841735 216.26905224 -508.33810248 214.117005 -506.671875 211.9609375 C-504.30863083 208.91285773 -501.90591745 205.90038895 -499.484375 202.8984375 C-494.38037633 196.54082512 -489.38107678 190.05238015 -484.72265625 183.359375 C-484.27277344 182.81539062 -483.82289063 182.27140625 -483.359375 181.7109375 C-482.699375 181.7109375 -482.039375 181.7109375 -481.359375 181.7109375 C-481.05193359 180.71126953 -481.05193359 180.71126953 -480.73828125 179.69140625 C-478.85243876 175.61520846 -476.15132347 172.46546835 -473.296875 169.0234375 C-472.20031076 167.68743763 -471.10518798 166.35025295 -470.01171875 165.01171875 C-469.52695068 164.42559814 -469.04218262 163.83947754 -468.54272461 163.2355957 C-467.27472691 161.70423728 -467.27472691 161.70423728 -466.359375 159.7109375 C-465.699375 159.7109375 -465.039375 159.7109375 -464.359375 159.7109375 C-464.1015625 159.14890625 -463.84375 158.586875 -463.578125 158.0078125 C-462.21767723 155.44389171 -460.63148538 153.25867385 -458.859375 150.9609375 C-458.2509375 150.16171875 -457.6425 149.3625 -457.015625 148.5390625 C-456.4690625 147.93578125 -455.9225 147.3325 -455.359375 146.7109375 C-454.699375 146.7109375 -454.039375 146.7109375 -453.359375 146.7109375 C-453.153125 146.04707031 -452.946875 145.38320312 -452.734375 144.69921875 C-450.85028081 140.60452542 -448.187994 137.38417671 -445.359375 133.8984375 C-444.8128125 133.20556641 -444.26625 132.51269531 -443.703125 131.79882812 C-442.91421875 130.8175293 -442.91421875 130.8175293 -442.109375 129.81640625 C-441.62984375 129.21981201 -441.1503125 128.62321777 -440.65625 128.00854492 C-440.22828125 127.58033447 -439.8003125 127.15212402 -439.359375 126.7109375 C-438.699375 126.7109375 -438.039375 126.7109375 -437.359375 126.7109375 C-437.029375 125.3909375 -436.699375 124.0709375 -436.359375 122.7109375 C-435.699375 122.7109375 -435.039375 122.7109375 -434.359375 122.7109375 C-434.09769531 122.14246094 -433.83601563 121.57398438 -433.56640625 120.98828125 C-432.2627087 118.52855416 -430.76071737 116.46609171 -429.046875 114.2734375 C-428.47324219 113.53222656 -427.89960938 112.79101562 -427.30859375 112.02734375 C-425.1227336 109.42971837 -422.78661604 107.08487163 -420.359375 104.7109375 C-413.45608682 97.89728786 -406.64829975 91.103692 -400.359375 83.7109375 C-398.76330849 81.870548 -397.15880396 80.03744971 -395.546875 78.2109375 C-394.79792969 77.355 -394.04898437 76.4990625 -393.27734375 75.6171875 C-391.359375 73.7109375 -391.359375 73.7109375 -389.359375 73.7109375 C-389.15054687 73.17339844 -388.94171875 72.63585937 -388.7265625 72.08203125 C-386.83212344 68.79653266 -384.19636827 66.37812168 -381.484375 63.7734375 C-377.83302487 60.24202223 -374.51462785 56.70535335 -371.359375 52.7109375 C-359.79786803 41.25453514 -345.91582586 31.599487 -330.359375 26.7109375 C-329.41578125 26.41058594 -328.4721875 26.11023438 -327.5 25.80078125 C-317.93247874 22.95959745 -310.73554929 23.47659533 -301.296875 26.3359375 C-300.43771484 26.57183594 -299.57855469 26.80773437 -298.69335938 27.05078125 C-290.7619757 29.41383674 -285.22840677 33.30861315 -281.171875 40.6484375 C-280.68589844 41.5146875 -280.19992187 42.3809375 -279.69921875 43.2734375 C-279.25707031 44.0778125 -278.81492187 44.8821875 -278.359375 45.7109375 C-277.98941406 46.3090625 -277.61945313 46.9071875 -277.23828125 47.5234375 C-270.35444494 58.6661453 -267.45495945 72.31760879 -266.54296875 85.234375 C-266.38383991 87.38092147 -266.10127552 89.51763388 -265.796875 91.6484375 C-265.39795292 94.70887024 -265.3437076 97.65681013 -265.390625 100.7421875 C-265.42508007 110.43579161 -264.80000751 120.10841827 -264.28930664 129.78540039 C-262.53978689 163.22175267 -262.19532661 196.6177293 -262.22900391 230.09423828 C-262.23474093 235.84508968 -262.23137841 241.59589477 -262.22543144 247.34674454 C-262.22178056 251.8701206 -262.22298428 256.39348606 -262.22555923 260.91686249 C-262.22621392 263.03582515 -262.2254529 265.15478887 -262.22307968 267.27375031 C-262.2119067 280.02255815 -262.48588805 292.72111721 -263.11439514 305.45503235 C-263.54155976 314.18075032 -263.71620084 322.91526103 -263.921875 331.6484375 C-263.9652963 333.42253091 -264.00891576 335.19661948 -264.05273438 336.97070312 C-264.15721002 341.21739618 -264.25908243 345.46414368 -264.359375 349.7109375 C-260.83779736 348.92255822 -257.31725643 348.12963971 -253.796875 347.3359375 C-252.80623047 347.11421875 -251.81558594 346.8925 -250.79492188 346.6640625 C-248.85799947 346.22648535 -246.9232412 345.77919881 -244.9909668 345.3215332 C-243.3880701 344.94962072 -241.77814955 344.60483209 -240.15942383 344.30932617 C-238.06096231 343.93257084 -238.06096231 343.93257084 -235.359375 342.7109375 C-233.79060361 340.05072122 -233.79060361 340.05072122 -233.171875 336.7734375 C-232.1438854 332.60577523 -230.99302211 328.6056025 -229.49609375 324.5859375 C-226.77817477 317.2586383 -224.59177629 309.7813145 -222.359375 302.29492188 C-220.56854965 296.37330601 -218.63486664 290.60405982 -216.24633789 284.89526367 C-215.07505869 282.01075087 -214.11149326 279.07473775 -213.16796875 276.109375 C-211.98800583 272.60938837 -210.6686727 269.16427472 -209.359375 265.7109375 C-204.99454567 254.24647723 -204.99454567 254.24647723 -201.00390625 242.6484375 C-200.11615666 239.97980842 -199.10760099 237.36172687 -198.10546875 234.734375 C-197.3245244 232.61642121 -196.61871141 230.48294698 -195.921875 228.3359375 C-193.86120271 222.07839861 -191.36705823 215.997494 -188.734375 209.9609375 C-187.44499577 206.91331387 -186.35909695 203.86390673 -185.359375 200.7109375 C-184.699375 200.7109375 -184.039375 200.7109375 -183.359375 200.7109375 C-183.2975 199.1021875 -183.2975 199.1021875 -183.234375 197.4609375 C-182.62063005 192.42644992 -180.41958291 188.44674542 -178.02734375 184.03125 C-176.2841853 180.56126246 -174.8737781 177.04817934 -173.45532227 173.43701172 C-167.80125454 159.37300633 -161.10121898 145.79400665 -153.58203125 132.64453125 C-151.07491092 128.25627359 -148.83121231 123.75319894 -146.609375 119.21484375 C-144.98666839 115.96435958 -143.20717329 112.83798077 -141.359375 109.7109375 C-140.699375 109.7109375 -140.039375 109.7109375 -139.359375 109.7109375 C-139.11574219 109.05480469 -138.87210938 108.39867187 -138.62109375 107.72265625 C-134.55935255 98.02729258 -129.33430383 88.56011914 -123.10546875 80.1015625 C-121.09131151 77.3439244 -119.22943976 74.50558058 -117.359375 71.6484375 C-111.46725851 62.79329889 -104.99250222 54.15751172 -97.359375 46.7109375 C-96.699375 46.7109375 -96.039375 46.7109375 -95.359375 46.7109375 C-95.359375 46.0509375 -95.359375 45.3909375 -95.359375 44.7109375 C-94.699375 44.7109375 -94.039375 44.7109375 -93.359375 44.7109375 C-93.09125 44.1128125 -92.823125 43.5146875 -92.546875 42.8984375 C-91.36020094 40.71245896 -90.26338387 39.29761156 -88.359375 37.7109375 C-87.699375 37.7109375 -87.039375 37.7109375 -86.359375 37.7109375 C-86.1325 37.1540625 -85.905625 36.5971875 -85.671875 36.0234375 C-83.99218665 33.0639866 -81.81804215 31.04966966 -79.359375 28.7109375 C-78.8025 28.1128125 -78.245625 27.5146875 -77.671875 26.8984375 C-76.359375 25.7109375 -76.359375 25.7109375 -74.359375 25.7109375 C-74.359375 25.0509375 -74.359375 24.3909375 -74.359375 23.7109375 C-73.699375 23.7109375 -73.039375 23.7109375 -72.359375 23.7109375 C-72.359375 23.0509375 -72.359375 22.3909375 -72.359375 21.7109375 C-69.70240487 19.26716242 -66.7098108 17.21374823 -63.796875 15.0859375 C-62.93368652 14.45510254 -62.07049805 13.82426758 -61.18115234 13.17431641 C-43.74535625 0.64847138 -21.20837743 -11.58735853 0 0 Z " fill="#FEFEFE" transform="translate(722.359375,63.2890625)"/>
<path d="M0 0 C1.5625 1.625 1.5625 1.625 1.5625 3.625 C2.2225 3.625 2.8825 3.625 3.5625 3.625 C11.97896557 21.09313609 11.82520684 38.63315729 11.57763672 57.71264648 C11.49450285 65.11681614 11.61197557 72.48056643 11.90956116 79.87994385 C12.68660766 99.24003019 12.71573102 118.58450096 12.69287109 137.95776367 C12.68722634 142.79824146 12.69052452 147.63866354 12.69632339 152.47913933 C12.71805604 174.08364033 12.5316485 195.66806248 11.91189575 217.26445007 C11.63134387 227.19797969 11.52958232 237.11661505 11.55639648 247.05406189 C11.57046078 252.8525396 11.48927435 258.64797646 11.37890625 264.4453125 C11.35908188 265.52207245 11.33925751 266.5988324 11.3188324 267.70822144 C11.27699245 269.93424428 11.23411726 272.16024792 11.19018555 274.38623047 C11.12387224 277.80819601 11.06484434 281.23024493 11.00585938 284.65234375 C10.96398356 286.83334186 10.92168257 289.01433186 10.87890625 291.1953125 C10.86219376 292.21593781 10.84548126 293.23656311 10.82826233 294.28811646 C10.80831711 295.22444916 10.78837189 296.16078186 10.76782227 297.12548828 C10.75227798 297.94896759 10.7367337 298.7724469 10.72071838 299.62088013 C10.5625 301.625 10.5625 301.625 9.5625 303.625 C-1.99636877 306.82247407 -14.19833616 307.48354198 -26.10424805 308.37548828 C-28.50454338 308.57897622 -28.50454338 308.57897622 -31.05444336 309.27148438 C-33.4375 309.625 -33.4375 309.625 -36.3046875 307.7109375 C-37.32009608 306.82170395 -38.32226829 305.91718704 -39.3125 305 C-42.66544642 302.03337581 -45.9670391 299.13061653 -49.6875 296.625 C-50.595 295.965 -51.5025 295.305 -52.4375 294.625 C-52.4375 293.965 -52.4375 293.305 -52.4375 292.625 C-53.613125 292.315625 -53.613125 292.315625 -54.8125 292 C-57.90178327 290.8282029 -60.27468513 289.59265368 -63.0625 287.875 C-77.73822898 278.85896919 -93.8603378 272.26734024 -110.8203125 269.12036133 C-112.41423282 268.81867622 -114.00586034 268.50401336 -115.5925293 268.16625977 C-123.08979472 266.57100966 -130.6498188 265.58595176 -138.25 264.625 C-138.92615356 264.53817963 -139.60230713 264.45135925 -140.2989502 264.36190796 C-149.9422727 263.12470569 -159.59072902 262.03084645 -169.28051758 261.22070312 C-172.5045669 260.94589019 -175.35452482 260.65265839 -178.4375 259.625 C-180.03483341 259.42176076 -181.63767031 259.26029526 -183.2421875 259.125 C-184.20777588 259.04314453 -185.17336426 258.96128906 -186.16821289 258.87695312 C-187.72463501 258.75223633 -187.72463501 258.75223633 -189.3125 258.625 C-190.38298584 258.53669922 -191.45347168 258.44839844 -192.55639648 258.35742188 C-200.39588687 257.73234623 -208.22916495 257.33547515 -216.08618164 257.02172852 C-223.61769136 256.68869514 -230.99231447 255.8029633 -238.4375 254.625 C-235.60299818 250.19359575 -232.50846936 246.21821196 -229.0625 242.25 C-224.40578893 236.82103555 -219.97635537 231.29727294 -215.90625 225.41015625 C-215.4215625 224.82105469 -214.936875 224.23195313 -214.4375 223.625 C-213.7775 223.625 -213.1175 223.625 -212.4375 223.625 C-212.1075 222.305 -211.7775 220.985 -211.4375 219.625 C-210.7775 219.625 -210.1175 219.625 -209.4375 219.625 C-209.18871094 219.06941406 -208.93992188 218.51382813 -208.68359375 217.94140625 C-207.21654015 215.21425018 -205.44863998 212.96836277 -203.5 210.5625 C-202.81035156 209.70527344 -202.12070313 208.84804688 -201.41015625 207.96484375 C-199.4375 205.625 -199.4375 205.625 -197.953125 204.171875 C-195.76394449 201.93755675 -193.98694511 199.44903563 -192.125 196.9375 C-191.72982178 196.40801758 -191.33464355 195.87853516 -190.92749023 195.33300781 C-189.12875401 192.92104112 -187.34635904 190.4986717 -185.5859375 188.05859375 C-185.06257813 187.33800781 -184.53921875 186.61742187 -184 185.875 C-183.54753906 185.24078125 -183.09507812 184.6065625 -182.62890625 183.953125 C-182.23574219 183.51484375 -181.84257812 183.0765625 -181.4375 182.625 C-180.7775 182.625 -180.1175 182.625 -179.4375 182.625 C-179.355 182.0475 -179.2725 181.47 -179.1875 180.875 C-178.4375 178.625 -178.4375 178.625 -176.6171875 176.8125 C-173.57491492 173.75932322 -171.39506769 170.25521144 -169.0234375 166.671875 C-168.23839844 165.65867187 -168.23839844 165.65867187 -167.4375 164.625 C-166.7775 164.625 -166.1175 164.625 -165.4375 164.625 C-165.20933594 164.09777344 -164.98117188 163.57054687 -164.74609375 163.02734375 C-162.99792751 159.81802364 -160.76155732 157.04300167 -158.5 154.1875 C-156.07231858 151.11667736 -153.71829592 148.10812463 -151.74609375 144.71484375 C-151.31425781 144.02519531 -150.88242187 143.33554687 -150.4375 142.625 C-149.7775 142.625 -149.1175 142.625 -148.4375 142.625 C-148.18742187 142.06296875 -147.93734375 141.5009375 -147.6796875 140.921875 C-146.24127407 138.26216716 -144.51877136 136.18239699 -142.5625 133.875 C-137.94297468 128.33908104 -133.64682574 122.60056902 -129.42431641 116.75683594 C-128.14184261 115.01111757 -126.7950789 113.31297252 -125.4375 111.625 C-124.7775 111.625 -124.1175 111.625 -123.4375 111.625 C-123.21191406 110.91730469 -122.98632812 110.20960938 -122.75390625 109.48046875 C-121.14186549 105.98372752 -119.0201116 103.7272364 -116.375 100.9375 C-113.01791094 97.55579316 -113.01791094 97.55579316 -110.4375 93.625 C-109.7775 93.625 -109.1175 93.625 -108.4375 93.625 C-108.23898437 92.94308594 -108.04046875 92.26117188 -107.8359375 91.55859375 C-105.92773636 87.5556355 -103.14056689 84.83675566 -100.0625 81.6875 C-96.02366308 77.52695705 -92.6467281 73.47846225 -89.4375 68.625 C-87.81572571 66.91461884 -86.1453305 65.24946008 -84.4375 63.625 C-83.40916426 62.61300292 -82.38322417 61.59856721 -81.359375 60.58203125 C-80.83859375 60.06576172 -80.3178125 59.54949219 -79.78125 59.01757812 C-79.2553125 58.49615234 -78.729375 57.97472656 -78.1875 57.4375 C-77.64609375 56.90447266 -77.1046875 56.37144531 -76.546875 55.82226562 C-73.62992899 52.99992463 -73.62992899 52.99992463 -71.4375 49.625 C-70.7775 49.625 -70.1175 49.625 -69.4375 49.625 C-69.2209375 49.07972656 -69.004375 48.53445312 -68.78125 47.97265625 C-66.98612264 44.83640176 -64.5242754 42.53898652 -61.9375 40.0625 C-59.15378244 37.37588887 -56.59856778 34.86660167 -54.4375 31.625 C-53.7775 31.625 -53.1175 31.625 -52.4375 31.625 C-52.22867188 31.09261719 -52.01984375 30.56023437 -51.8046875 30.01171875 C-49.89069396 26.67043289 -47.27829564 24.12617699 -44.5625 21.4375 C-43.98387207 20.86378662 -43.40524414 20.29007324 -42.80908203 19.69897461 C-33.52247225 10.65887843 -14.08147621 -7.94339683 0 0 Z " fill="#F97316" transform="translate(412.4375,115.375)"/>
<path d="M0 0 C9.41385512 6.66061536 11.66840946 16.29572869 13.57446289 26.95629883 C14.28168085 32.01475338 14.29452292 37.02513834 14.25 42.125 C14.24613281 43.21594971 14.24226562 44.30689941 14.23828125 45.4309082 C14.16388971 52.44592741 13.69332941 59.28307577 12.71191406 66.2253418 C11.93748242 71.80689941 11.95934813 77.22197317 12.0625 82.84375 C11.98682419 86.66537852 11.30593028 90.13092275 10.4375 93.83984375 C9.88420752 96.20438955 9.88420752 96.20438955 10 99.5 C10 103.30765163 9.31444275 106.59319243 8.5078125 110.296875 C7.79409822 114.09603101 7.51426246 117.89712712 7.24609375 121.75 C7 124 7 124 6 126 C5.74559756 127.61030559 5.53668325 129.22792324 5.3515625 130.84765625 C5.23490234 131.83636719 5.11824219 132.82507813 4.99804688 133.84375 C4.87494141 134.9059375 4.75183594 135.968125 4.625 137.0625 C3.76386957 144.24848499 2.84752709 151.38824846 1.5 158.5 C0.26949618 165.03784442 -0.59702416 171.5811975 -1.375 178.1875 C-2.65766748 189.0513583 -4.39738094 199.81325939 -6.28662109 210.5847168 C-8.33115994 222.38814984 -9.14992371 233.71045146 -9.0625 245.6875 C-9.05573242 247.47317383 -9.05573242 247.47317383 -9.04882812 249.29492188 C-9.03717452 252.19666936 -9.02081559 255.09830626 -9 258 C-14.74672558 259.75083621 -20.49611408 261.43002734 -26.3125 262.9375 C-33.2716291 264.76931106 -40.13916719 266.83104298 -47 269 C-48.46734842 269.45865177 -49.93480308 269.91696373 -51.40234375 270.375 C-70.69446048 276.40020849 -70.69446048 276.40020849 -89.75 283.125 C-94.80601204 284.99702874 -99.94901957 286.42583241 -105.140625 287.87109375 C-109.41059496 289.0912432 -113.60796427 290.51059893 -117.8125 291.9375 C-124.36661065 294.1594915 -130.94912085 296.19340096 -137.6003418 298.10302734 C-142.82558794 299.61771408 -147.97570279 301.30836794 -153.125 303.0625 C-162.591861 306.27752506 -172.16477386 309.13628923 -182 311 C-181.71640113 309.5608866 -181.42278601 308.12374482 -181.125 306.6875 C-180.96257813 305.88699219 -180.80015625 305.08648437 -180.6328125 304.26171875 C-180 302 -180 302 -178 299 C-177.13266419 296.31784273 -176.32546653 293.64887107 -175.5625 290.9375 C-175.11849834 289.39843498 -174.67448796 287.85937246 -174.23046875 286.3203125 C-173.52158964 283.83681348 -172.81665999 281.35225248 -172.11328125 278.8671875 C-171.86964844 278.02414062 -171.62601563 277.18109375 -171.375 276.3125 C-171.17648437 275.60738281 -170.97796875 274.90226562 -170.7734375 274.17578125 C-170 272 -170 272 -168.5625 269.203125 C-166.8545228 265.70177175 -165.71573673 262.16158038 -164.625 258.4375 C-162.76820038 252.30042924 -160.65932476 246.33682145 -158.30078125 240.37109375 C-156.86461094 236.64912686 -155.55348646 232.89485264 -154.25 229.125 C-151.0991896 220.05748089 -147.57998923 211.14047503 -144.05078125 202.21484375 C-142.31735047 197.82724603 -140.64469793 193.42158169 -139 189 C-135.82339285 180.59736173 -132.51553881 172.26653839 -129 164 C-128.62536621 163.09725342 -128.62536621 163.09725342 -128.24316406 162.17626953 C-124.77011239 153.80821297 -120.93785008 145.84694519 -116.40722656 137.9987793 C-113.77394496 133.42621177 -111.32978729 128.7965719 -109 124.0625 C-106.155749 118.29393866 -103.24667653 112.56608927 -100.25 106.875 C-99.88519531 106.17640869 -99.52039063 105.47781738 -99.14453125 104.75805664 C-96.97880083 100.66409233 -94.5713149 96.85697235 -92 93 C-90.99888781 91.00055648 -89.99902045 89.00048948 -89 87 C-87.21648317 83.94837976 -85.35927536 80.9434107 -83.5 77.9375 C-82.53110661 76.3633695 -81.56235274 74.78915311 -80.59375 73.21484375 C-80.14128906 72.48507324 -79.68882812 71.75530273 -79.22265625 71.00341797 C-78.20603866 69.33761047 -77.23728186 67.6427084 -76.28125 65.94140625 C-75.8584375 65.30074219 -75.435625 64.66007812 -75 64 C-74.34 64 -73.68 64 -73 64 C-72.773125 63.34 -72.54625 62.68 -72.3125 62 C-69.52162922 55.62086679 -65.966005 50.86654281 -61 46 C-58.85289596 43.74965978 -56.73885542 41.46905297 -54.625 39.1875 C-53.76455078 38.26155029 -53.76455078 38.26155029 -52.88671875 37.31689453 C-49.86300136 34.05234251 -46.89209464 30.75760409 -44 27.375 C-41.5616256 24.55544052 -39.09374699 22.12142651 -36 20 C-35.34 20 -34.68 20 -34 20 C-33.74605469 19.40574219 -33.49210938 18.81148437 -33.23046875 18.19921875 C-29.66194056 11.82118265 -21.50213589 7.88472411 -15.4375 4.0625 C-14.82495361 3.66071533 -14.21240723 3.25893066 -13.58129883 2.8449707 C-8.85865792 -0.04314693 -5.53118939 -0.7660303 0 0 Z " fill="#F97316" transform="translate(708,86)"/>
<path d="M0 0 C1.79157359 -0.02770475 3.58328184 -0.046704 5.375 -0.0625 C6.37273437 -0.07410156 7.37046875 -0.08570313 8.3984375 -0.09765625 C11.22553551 -0.02099958 13.92902076 0.17781643 16.734375 0.48046875 C22.11376369 1.05254003 27.47033181 1.21772009 32.875 1.375 C43.23445825 1.73320524 53.45155531 2.72110439 63.74511719 3.91137695 C71.85608366 4.82958892 79.91786022 5.42622365 88.07885742 5.62109375 C93.03216425 5.77023671 97.61309762 6.45639517 102.45458984 7.50268555 C105.00330417 8.00064556 107.51021099 8.31412014 110.09375 8.5703125 C129.72447773 10.53465493 158.63262277 14.87266903 173 30 C161.21335212 30.22961002 149.51418837 29.98618435 137.75 29.1875 C136.64043945 29.11740723 135.53087891 29.04731445 134.38769531 28.97509766 C125.85789888 28.35051011 117.57467814 26.96755696 109.18060303 25.40097046 C105.61445597 24.74522542 102.03942608 24.14286858 98.46484375 23.53515625 C96.33308548 23.16770487 94.20156519 22.79889621 92.07006836 22.42993164 C90.64691549 22.184729 89.22340927 21.94156857 87.79956055 21.70043945 C75.64705206 19.63916303 63.65281071 17.13264945 51.875 13.4375 C46.91154933 11.89883029 41.87342445 10.87426369 36.7890625 9.81640625 C27.46031751 7.80639831 18.24070823 5.43058852 9.12890625 2.59375 C6.099696 1.74890604 3.12336798 1.33949652 0 1 C0 0.67 0 0.34 0 0 Z " fill="#F97316" transform="translate(165,397)"/>
<path d="M0 0 C-0.23726807 1.0506665 -0.47453613 2.10133301 -0.71899414 3.18383789 C-3.42796778 15.24118197 -5.96652154 27.32935098 -8.4375 39.4375 C-8.73105881 40.87243805 -8.73105881 40.87243805 -9.0305481 42.33636475 C-12.02528391 56.98866123 -14.86724461 71.65762853 -17.51538086 86.37670898 C-18.15805286 89.85555568 -18.85998007 93.3214521 -19.56030273 96.7890625 C-21.35124748 105.7945015 -22.28766456 114.72925121 -22.75390625 123.8828125 C-23 127 -23 127 -24 130 C-24.219565 132.3545956 -24.39064252 134.71382789 -24.53515625 137.07421875 C-24.57813339 137.7580513 -24.62111053 138.44188385 -24.66539001 139.1464386 C-24.80153681 141.32657778 -24.93208855 143.50701096 -25.0625 145.6875 C-25.15392809 147.16734054 -25.24572066 148.64715861 -25.33789062 150.12695312 C-25.56282069 153.75105107 -25.78273474 157.37543355 -26 161 C-28.46415865 158.53584135 -28.23645698 157.15897091 -28.25224304 153.79620361 C-28.24505753 153.08486267 -28.23787201 152.37352173 -28.23046875 151.640625 C-28.23001053 150.89979675 -28.22955231 150.15896851 -28.2290802 149.39569092 C-28.22605319 147.81862804 -28.21815354 146.24156827 -28.20581055 144.66455078 C-28.1878867 142.30099329 -28.18529875 139.93783619 -28.18554688 137.57421875 C-28.16655732 129.52922558 -27.89236931 121.57473609 -27.24731445 113.55175781 C-26.81757512 107.38014097 -26.70175254 101.19956904 -26.55444336 95.01580811 C-26.28488834 83.79754455 -25.94641524 72.59558942 -25.25390625 61.39453125 C-24.90427304 55.62078439 -24.67376871 49.8418013 -24.4375 44.0625 C-24.39367187 43.03108887 -24.34984375 41.99967773 -24.3046875 40.93701172 C-24.0719037 35.11835534 -23.98688344 29.32067844 -24.01147461 23.49780273 C-23.9960783 20.14632149 -23.8071948 16.84290746 -23.5625 13.5 C-23.48128906 12.3346875 -23.40007812 11.169375 -23.31640625 9.96875 C-23 7 -23 7 -22 4 C-20.18994141 3.29223633 -20.18994141 3.29223633 -17.8515625 2.83203125 C-16.59085937 2.57583008 -16.59085937 2.57583008 -15.3046875 2.31445312 C-13.97824219 2.06598633 -13.97824219 2.06598633 -12.625 1.8125 C-11.7484375 1.63525391 -10.871875 1.45800781 -9.96875 1.27539062 C-6.57716475 0.60381526 -3.46605511 0 0 0 Z " fill="#F97316" transform="translate(480,437)"/>
<path d="M0 0 C0.13410099 8.03115931 -0.04927358 16.03828841 -0.375 24.0625 C-0.40585693 24.97862061 -0.43671387 25.89474121 -0.46850586 26.83862305 C-0.5072583 27.707854 -0.54601074 28.57708496 -0.5859375 29.47265625 C-0.6173584 30.24875244 -0.6487793 31.02484863 -0.68115234 31.82446289 C-1.03203637 34.21858813 -1.81211985 35.90617516 -3 38 C-3.20753906 37.50113281 -3.41507812 37.00226563 -3.62890625 36.48828125 C-8.13135555 25.99512536 -13.82820142 16.13122622 -19.71484375 6.36328125 C-21 4 -21 4 -21 2 C-13.90294338 0.65504172 -7.2274605 -0.24091535 0 0 Z " fill="#F97316" transform="translate(422,448)"/>
</svg>
